<svg xmlns="http://www.w3.org/2000/svg" version="1.1" viewBox="0 0 845 845" width="512" height="512">
  <path fill="#5bc577" d="
  M 448.44 570.56
  Q 433.89 555.66 426.25 538.14
  Q 415.33 513.13 407.81 493.69
  Q 402.32 479.48 395.74 466.83
  Q 390.25 456.27 384.90 450.11
  Q 371.52 434.69 351.69 429.06
  Q 345.23 427.23 336.73 428.07
  Q 319.05 429.83 305.56 441.31
  Q 290.96 453.75 280.63 473.60
  Q 269.48 494.99 259.44 516.94
  Q 256.03 524.39 247.72 537.21
  Q 236.75 554.13 220.25 565.75
  Q 202.75 578.08 183.26 580.60
  Q 158.94 583.74 136.19 573.31
  Q 124.85 568.12 116.44 560.57
  Q 105.98 551.18 98.40 539.34
  Q 85.58 519.31 81.55 495.83
  Q 78.64 478.82 84.50 461.00
  Q 85.93 456.66 87.51 453.52
  Q 89.22 450.15 92.26 447.08
  Q 102.60 436.61 117.25 436.25
  Q 136.28 435.78 151.25 436.00
  Q 164.08 436.19 175.50 435.00
  Q 187.61 433.74 199.44 425.69
  Q 210.16 418.38 219.47 406.46
  Q 231.05 391.62 239.01 374.68
  Q 240.43 371.66 246.88 356.28
  Q 256.14 334.22 261.94 319.44
  Q 270.08 298.71 283.06 281.81
  Q 294.85 266.46 312.08 259.08
  Q 321.15 255.19 331.38 254.20
  Q 355.39 251.87 375.66 264.42
  Q 383.70 269.39 390.83 277.31
  Q 402.58 290.36 410.06 306.94
  Q 415.91 319.89 419.35 329.30
  Q 428.01 352.98 438.94 373.81
  Q 444.09 383.64 451.75 393.24
  Q 462.86 407.16 478.91 413.19
  Q 488.26 416.71 498.47 416.58
  Q 524.52 416.26 542.19 395.69
  Q 557.17 378.24 566.59 356.64
  Q 576.11 334.83 588.56 314.56
  Q 599.28 297.12 615.54 283.56
  Q 623.73 276.73 632.22 272.69
  Q 649.28 264.57 668.26 263.87
  Q 678.17 263.50 688.12 265.58
  Q 723.07 272.90 744.06 302.94
  Q 758.30 323.31 762.65 347.60
  Q 764.67 358.84 763.86 367.49
  Q 762.25 384.85 750.81 398.06
  Q 741.28 409.08 725.50 409.03
  Q 702.75 408.96 680.00 408.82
  Q 666.37 408.73 660.08 409.88
  Q 637.83 413.93 622.09 431.35
  Q 607.30 447.72 597.69 468.19
  Q 591.79 480.75 587.97 490.38
  Q 578.07 515.36 569.31 535.81
  Q 561.81 553.33 549.15 567.51
  Q 541.94 575.59 534.04 580.49
  Q 519.03 589.82 501.25 591.25
  Q 493.96 591.84 486.40 590.35
  Q 479.11 588.92 472.19 586.33
  Q 459.02 581.40 448.44 570.56
  Z" />
</svg>